<svg xmlns="http://www.w3.org/2000/svg" xmlns:xlink="http://www.w3.org/1999/xlink" version="1.1" width="500px" height="500px" style="shape-rendering:geometricPrecision; text-rendering:geometricPrecision; image-rendering:optimizeQuality; fill-rule:evenodd; clip-rule:evenodd">
    <g><path style="opacity:1" fill="#162c65" d="M 162.5,95.5 C 164.199,95.3398 165.866,95.5065 167.5,96C 171.728,100.956 175.061,106.456 177.5,112.5C 176.07,117.259 173.07,118.592 168.5,116.5C 164.59,111.845 161.59,106.678 159.5,101C 159.863,98.8077 160.863,96.9744 162.5,95.5 Z"/></g>
    <g><path style="opacity:1" fill="#182f65" d="M 325.5,95.5 C 330.333,94.7498 333.333,96.7498 334.5,101.5C 331.448,107.106 327.781,112.273 323.5,117C 317,118.5 314.5,116 316,109.5C 318.929,104.631 322.096,99.9648 325.5,95.5 Z"/></g>
    <g><path style="opacity:1" fill="#1a2d64" d="M 347.5,111.5 C 354.787,110.931 357.287,113.931 355,120.5C 349.75,124.21 344.25,127.544 338.5,130.5C 333.619,129.41 331.786,126.41 333,121.5C 337.639,117.774 342.472,114.44 347.5,111.5 Z"/></g>
    <g><path style="opacity:1" fill="#0a255b" d="M 321.5,354.5 C 312.515,355.142 303.515,355.642 294.5,356C 293.944,356.383 293.611,356.883 293.5,357.5C 290.101,360.232 289.601,363.566 292,367.5C 296.964,368.633 301.797,369.466 306.5,370C 311.095,375.697 310.095,380.03 303.5,383C 297.058,383.083 290.725,383.749 284.5,385C 281.784,388.261 278.951,391.428 276,394.5C 276.311,424.739 261.811,436.573 232.5,430C 224.48,426.649 219.313,420.816 217,412.5C 216.667,406.5 216.333,400.5 216,394.5C 212.833,391.333 209.667,388.167 206.5,385C 199.265,383.583 191.932,382.583 184.5,382C 179.167,378 179.167,374 184.5,370C 188.749,368.874 193.082,368.208 197.5,368C 201.884,362.024 200.551,357.357 193.5,354C 188.258,355.848 182.758,357.015 177,357.5C 169.185,357.565 162.519,354.898 157,349.5C 154.56,344.938 151.893,340.604 149,336.5C 148.228,336.645 147.561,336.978 147,337.5C 138.985,356.672 125.485,362.006 106.5,353.5C 93.5601,360.143 82.3934,357.81 73,346.5C 70.4856,342.475 68.819,338.141 68,333.5C 67.3333,321.5 67.3333,309.5 68,297.5C 69.2081,288.073 73.7081,280.739 81.5,275.5C 67.2009,263.953 64.8675,250.287 74.5,234.5C 67.338,227.18 62.5047,218.513 60,208.5C 59.3333,191.5 59.3333,174.5 60,157.5C 64.8639,141.621 75.3639,135.455 91.5,139C 94.2487,140.123 96.7487,141.623 99,143.5C 108.813,135.574 118.646,135.574 128.5,143.5C 139.12,135.327 149.453,135.66 159.5,144.5C 165.814,139.086 173.147,136.753 181.5,137.5C 184.135,104.37 201.468,83.537 233.5,75C 261.43,71.2185 283.596,80.7185 300,103.5C 305.97,114.046 309.137,125.379 309.5,137.5C 319.49,137.253 328.324,140.253 336,146.5C 349.39,134.968 363.057,134.634 377,145.5C 385.105,130.975 396.605,127.475 411.5,135C 420.223,142.708 422.89,152.208 419.5,163.5C 436.747,167.267 443.914,177.933 441,195.5C 438.459,201.209 434.626,205.876 429.5,209.5C 429.361,219.439 425.695,227.773 418.5,234.5C 425.871,244.491 426.371,254.825 420,265.5C 417.65,267.683 415.483,270.016 413.5,272.5C 428.322,282.099 432.155,295.099 425,311.5C 421.665,317.083 416.832,320.583 410.5,322C 405.177,322.499 399.844,322.666 394.5,322.5C 395.975,338.172 389.641,349.339 375.5,356C 360.907,359.621 347.24,357.455 334.5,349.5C 330.557,352.148 326.223,353.815 321.5,354.5 Z"/></g>
    <g><path style="opacity:1" fill="#fefdf9" d="M 210.5,135.5 C 204.599,137.1 201.599,134.933 201.5,129C 201.762,126.453 202.262,123.953 203,121.5C 205.511,116.478 208.011,111.478 210.5,106.5C 214.091,102.701 218.091,99.3673 222.5,96.5C 230.077,94.7684 237.743,94.2684 245.5,95C 250.298,98.3073 250.631,101.974 246.5,106C 237.411,108.134 229.077,111.8 221.5,117C 217.177,122.812 213.51,128.979 210.5,135.5 Z"/></g>
    <g><path style="opacity:1" fill="#1b2c67" d="M 141.5,111.5 C 148.718,112.859 154.885,116.193 160,121.5C 161.177,126.151 159.51,129.151 155,130.5C 150.086,127.96 145.253,125.294 140.5,122.5C 136.279,118.303 136.613,114.636 141.5,111.5 Z"/></g>
    <g><path style="opacity:1" fill="#a92f78" d="M 281.5,107.5 C 291.858,118.928 295.358,132.261 292,147.5C 285.491,152.419 278.825,157.085 272,161.5C 266.579,157.867 260.746,155.533 254.5,154.5C 272.753,149.742 282.419,137.909 283.5,119C 283.567,115.014 282.901,111.181 281.5,107.5 Z"/></g>
    <g><path style="opacity:1" fill="#eda640" d="M 210.5,106.5 C 208.011,111.478 205.511,116.478 203,121.5C 202.262,123.953 201.762,126.453 201.5,129C 201.599,134.933 204.599,137.1 210.5,135.5C 210.134,136.695 209.301,137.361 208,137.5C 205.88,136.541 203.713,136.374 201.5,137C 200.063,140.375 199.063,143.875 198.5,147.5C 194.888,131.615 198.888,117.948 210.5,106.5 Z"/></g>
    <g><path style="opacity:1" fill="#fea933" d="M 276.5,101.5 C 277.182,119.638 269.849,133.472 254.5,143C 236.597,153.318 217.931,155.151 198.5,148.5C 198.5,148.167 198.5,147.833 198.5,147.5C 199.063,143.875 200.063,140.375 201.5,137C 203.713,136.374 205.88,136.541 208,137.5C 209.301,137.361 210.134,136.695 210.5,135.5C 213.51,128.979 217.177,122.812 221.5,117C 229.077,111.8 237.411,108.134 246.5,106C 250.631,101.974 250.298,98.3073 245.5,95C 237.743,94.2684 230.077,94.7684 222.5,96.5C 226.912,93.3683 231.912,91.5349 237.5,91C 252.207,88.7441 265.207,92.2441 276.5,101.5 Z"/></g>
    <g><path style="opacity:1" fill="#fefae7" d="M 258.5,98.5 C 262.976,98.8003 264.31,100.967 262.5,105C 257.57,105.427 256.237,103.26 258.5,98.5 Z"/></g>
    <g><path style="opacity:1" fill="#fff6dc" d="M 211.5,139.5 C 215.161,139.35 216.161,140.85 214.5,144C 210.707,144.487 209.707,142.987 211.5,139.5 Z"/></g>
    <g><path style="opacity:1" fill="#ee5b5a" d="M 276.5,101.5 C 278.89,102.891 280.557,104.891 281.5,107.5C 282.901,111.181 283.567,115.014 283.5,119C 282.419,137.909 272.753,149.742 254.5,154.5C 242.019,152.993 231.352,156.66 222.5,165.5C 216.89,158.361 209.557,155.028 200.5,155.5C 200.233,153.035 199.566,150.701 198.5,148.5C 217.931,155.151 236.597,153.318 254.5,143C 269.849,133.472 277.182,119.638 276.5,101.5 Z"/></g>
    <g><path style="opacity:1" fill="#ec5c5f" d="M 396.5,146.5 C 402.82,146.32 405.32,149.32 404,155.5C 400.667,159.5 397.333,159.5 394,155.5C 392.927,151.9 393.76,148.9 396.5,146.5 Z"/></g>
    <g><path style="opacity:1" fill="#77f5cb" d="M 356.5,146.5 C 357.497,146.47 358.164,146.97 358.5,148C 359.777,153.439 362.777,157.605 367.5,160.5C 362.766,163.281 359.433,167.281 357.5,172.5C 356.081,170.664 354.914,168.664 354,166.5C 351.552,164.369 349.052,162.369 346.5,160.5C 348.5,158.673 350.667,157.006 353,155.5C 354.627,152.643 355.793,149.643 356.5,146.5 Z"/></g>
    <g><path style="opacity:1" fill="#effbf9" d="M 85.5,154.5 C 84.8237,157.096 83.3237,159.096 81,160.5C 80.6667,171.5 80.3333,182.5 80,193.5C 79.0053,194.066 78.172,194.733 77.5,195.5C 76.5489,196.919 76.2155,198.585 76.5,200.5C 75.3392,186.339 75.1725,172.006 76,157.5C 78.593,153.963 81.7597,152.963 85.5,154.5 Z"/></g>
    <g><path style="opacity:1" fill="#f2fcfb" d="M 146.5,155.5 C 145.499,157.943 143.665,159.61 141,160.5C 140.667,171.5 140.333,182.5 140,193.5C 137.758,198.596 133.925,200.929 128.5,200.5C 128.5,199.5 128.5,198.5 128.5,197.5C 131.808,198.026 133.974,196.693 135,193.5C 135.333,181.833 135.667,170.167 136,158.5C 138.761,154.614 142.261,153.614 146.5,155.5 Z"/></g>
    <g><path style="opacity:1" fill="#f6fdfd" d="M 176.5,154.5 C 176.657,155.873 176.49,157.207 176,158.5C 174.045,159.453 172.378,160.787 171,162.5C 170.667,175.833 170.333,189.167 170,202.5C 168.855,203.684 167.688,203.684 166.5,202.5C 166.5,188.833 166.5,175.167 166.5,161.5C 167.691,156.229 171.024,153.896 176.5,154.5 Z"/></g>
    <g><path style="opacity:1" fill="#eaf6f7" d="M 315.5,154.5 C 308.503,154.685 305.67,158.351 307,165.5C 306.167,166.333 305.333,167.167 304.5,168C 296.421,168.8 288.421,168.633 280.5,167.5C 281.29,166.206 282.29,165.039 283.5,164C 290.158,163.5 296.825,163.334 303.5,163.5C 302.959,157.038 305.959,153.705 312.5,153.5C 313.726,153.52 314.726,153.853 315.5,154.5 Z"/></g>
    <g><path style="opacity:1" fill="#6ef9d2" d="M 315.5,154.5 C 319.917,155.869 321.583,158.869 320.5,163.5C 326.842,163.334 333.175,163.5 339.5,164C 344.535,167.013 345.702,171.18 343,176.5C 342.097,177.701 340.931,178.535 339.5,179C 333.175,179.5 326.842,179.666 320.5,179.5C 319.506,189.987 319.172,200.654 319.5,211.5C 314.808,212.617 310.141,212.617 305.5,211.5C 304.833,200.674 304.167,190.008 303.5,179.5C 296.053,179.929 288.719,179.429 281.5,178C 278.242,174.568 277.908,171.068 280.5,167.5C 288.421,168.633 296.421,168.8 304.5,168C 305.333,167.167 306.167,166.333 307,165.5C 305.67,158.351 308.503,154.685 315.5,154.5 Z"/></g>
    <g><path style="opacity:1" fill="#f1f8f9" d="M 383.5,169.5 C 387.224,168.773 389.891,170.106 391.5,173.5C 384.796,173.662 378.462,175.162 372.5,178C 369.768,182.035 367.768,186.201 366.5,190.5C 365.757,178.322 371.424,171.322 383.5,169.5 Z"/></g>
    <g><path style="opacity:1" fill="#f0f8f9" d="M 214.5,185.5 C 214.167,185.5 213.833,185.5 213.5,185.5C 208.609,176.479 201.276,173.646 191.5,177C 189.457,178.708 187.79,180.708 186.5,183C 185.552,183.483 184.552,183.649 183.5,183.5C 183.5,181.5 183.5,179.5 183.5,177.5C 193.631,167.901 203.465,168.235 213,178.5C 213.977,180.74 214.477,183.073 214.5,185.5 Z"/></g>
    <g><path style="opacity:1" fill="#eff9f9" d="M 259.5,171.5 C 258.5,171.5 257.5,171.5 256.5,171.5C 256.5,172.5 256.5,173.5 256.5,174.5C 250.289,174.016 244.289,174.849 238.5,177C 234.972,179.533 231.806,182.366 229,185.5C 227.405,184.644 226.572,183.311 226.5,181.5C 235.096,170.267 246.096,166.934 259.5,171.5 Z"/></g>
    <g><path style="opacity:1" fill="#70fad2" d="M 259.5,171.5 C 267.308,174.137 273.141,179.137 277,186.5C 278.406,194.749 278.906,203.083 278.5,211.5C 273.324,211.817 268.324,211.151 263.5,209.5C 255.99,208.18 248.323,208.18 240.5,209.5C 239.757,210.182 239.091,210.849 238.5,211.5C 235.15,211.665 231.817,211.498 228.5,211C 227.263,210.768 226.263,210.268 225.5,209.5C 227.425,203.827 231.092,199.661 236.5,197C 237.738,196.31 237.738,195.81 236.5,195.5C 244.984,194.507 253.651,194.174 262.5,194.5C 260.834,187.18 256.167,183.513 248.5,183.5C 242.999,183.919 238.665,186.419 235.5,191C 227.345,192.351 224.345,189.185 226.5,181.5C 226.572,183.311 227.405,184.644 229,185.5C 231.806,182.366 234.972,179.533 238.5,177C 244.289,174.849 250.289,174.016 256.5,174.5C 256.5,173.5 256.5,172.5 256.5,171.5C 257.5,171.5 258.5,171.5 259.5,171.5 Z"/></g>
    <g><path style="opacity:1" fill="#6ef8d2" d="M 383.5,169.5 C 385.628,168.371 387.961,168.204 390.5,169C 393.167,170.333 395.833,171.667 398.5,173C 402.393,176.746 402.393,180.412 398.5,184C 393.177,184.499 387.844,184.666 382.5,184.5C 382.286,186.144 382.62,187.644 383.5,189C 389.798,190.733 396.131,192.399 402.5,194C 405.739,195.736 408.073,198.236 409.5,201.5C 406.015,205.12 403.515,209.453 402,214.5C 400.786,216.049 399.286,217.215 397.5,218C 391.167,218.667 384.833,218.667 378.5,218C 369.243,216.149 359.91,214.815 350.5,214C 348.576,212.25 346.909,210.417 345.5,208.5C 348.524,206.987 351.191,204.987 353.5,202.5C 357.182,202.335 360.848,202.501 364.5,203C 371.616,205.725 378.616,208.725 385.5,212C 388.5,212.667 391.5,212.667 394.5,212C 395.833,210 395.833,208 394.5,206C 383.964,206.603 375.131,203.103 368,195.5C 367.392,193.846 366.892,192.179 366.5,190.5C 367.768,186.201 369.768,182.035 372.5,178C 378.462,175.162 384.796,173.662 391.5,173.5C 389.891,170.106 387.224,168.773 383.5,169.5 Z"/></g>
    <g><path style="opacity:1" fill="#70f8d1" d="M 176.5,154.5 C 179.346,155.334 181.513,157 183,159.5C 183.499,165.491 183.666,171.491 183.5,177.5C 183.5,179.5 183.5,181.5 183.5,183.5C 184.552,183.649 185.552,183.483 186.5,183C 187.79,180.708 189.457,178.708 191.5,177C 201.276,173.646 208.609,176.479 213.5,185.5C 213.5,194.167 213.5,202.833 213.5,211.5C 208.453,211.663 203.453,211.329 198.5,210.5C 198.825,203.313 198.491,196.313 197.5,189.5C 195.379,184.343 191.712,183.177 186.5,186C 184.859,187.129 183.859,188.629 183.5,190.5C 182.508,197.648 182.175,204.981 182.5,212.5C 175.892,213.885 170.725,211.885 167,206.5C 166.51,205.207 166.343,203.873 166.5,202.5C 167.688,203.684 168.855,203.684 170,202.5C 170.333,189.167 170.667,175.833 171,162.5C 172.378,160.787 174.045,159.453 176,158.5C 176.49,157.207 176.657,155.873 176.5,154.5 Z"/></g>
    <g><path style="opacity:1" fill="#7ae4c2" d="M 353.5,178.5 C 355.916,179.916 357.916,181.916 359.5,184.5C 357.465,185.597 356.132,187.263 355.5,189.5C 353.952,187.58 352.285,185.747 350.5,184C 352.576,182.756 353.576,180.923 353.5,178.5 Z"/></g>
    <g><path style="opacity:1" fill="#f6963c" d="M 416.5,179.5 C 427.282,180.684 429.282,185.518 422.5,194C 414.878,195.378 411.378,192.211 412,184.5C 413.707,182.963 415.207,181.296 416.5,179.5 Z"/></g>
    <g><path style="opacity:1" fill="#72fcd4" d="M 85.5,154.5 C 88.1483,154.738 89.9817,156.072 91,158.5C 91.3333,169.5 91.6667,180.5 92,191.5C 92.4365,194.772 94.2699,196.439 97.5,196.5C 102.179,200.642 106.013,199.642 109,193.5C 109.333,183.167 109.667,172.833 110,162.5C 113.006,160.48 114.839,157.813 115.5,154.5C 117.735,155.228 119.568,156.561 121,158.5C 121.333,169.5 121.667,180.5 122,191.5C 123.406,194.409 125.572,196.409 128.5,197.5C 128.5,198.5 128.5,199.5 128.5,200.5C 133.925,200.929 137.758,198.596 140,193.5C 140.333,182.5 140.667,171.5 141,160.5C 143.665,159.61 145.499,157.943 146.5,155.5C 149.063,155.731 150.73,157.065 151.5,159.5C 151.965,173.598 151.465,187.598 150,201.5C 141.465,211.518 130.632,216.184 117.5,215.5C 116.438,212.484 115.271,209.484 114,206.5C 113.339,209.802 112.172,212.802 110.5,215.5C 96.7945,215.988 85.9611,210.654 78,199.5C 77.51,198.207 77.3433,196.873 77.5,195.5C 78.172,194.733 79.0053,194.066 80,193.5C 80.3333,182.5 80.6667,171.5 81,160.5C 83.3237,159.096 84.8237,157.096 85.5,154.5 Z"/></g>
    <g><path style="opacity:1" fill="#f9fcfc" d="M 115.5,154.5 C 114.839,157.813 113.006,160.48 110,162.5C 109.667,172.833 109.333,183.167 109,193.5C 106.013,199.642 102.179,200.642 97.5,196.5C 101.09,196.456 103.59,194.789 105,191.5C 105.333,180.5 105.667,169.5 106,158.5C 108.195,155.037 111.361,153.704 115.5,154.5 Z"/></g>
    <g><path style="opacity:1" fill="#e9f2f4" d="M 236.5,195.5 C 237.738,195.81 237.738,196.31 236.5,197C 231.092,199.661 227.425,203.827 225.5,209.5C 224.609,210.11 223.609,210.443 222.5,210.5C 223.034,201.633 227.701,196.633 236.5,195.5 Z"/></g>
    <g><path style="opacity:1" fill="#ebf4f6" d="M 353.5,202.5 C 351.191,204.987 348.524,206.987 345.5,208.5C 344.833,208.5 344.167,208.5 343.5,208.5C 343.452,205.708 344.785,203.875 347.5,203C 349.473,202.505 351.473,202.338 353.5,202.5 Z"/></g>
    <g><path style="opacity:1" fill="#57d1c5" d="M 303.5,179.5 C 304.167,190.008 304.833,200.674 305.5,211.5C 310.141,212.617 314.808,212.617 319.5,211.5C 319.172,200.654 319.506,189.987 320.5,179.5C 320.667,193.837 320.5,208.171 320,222.5C 317.265,228.122 313.099,229.622 307.5,227C 305.513,225.681 304.346,223.848 304,221.5C 303.5,207.504 303.333,193.504 303.5,179.5 Z"/></g>
    <g><path style="opacity:1" fill="#48c9be" d="M 151.5,159.5 C 152.661,173.661 152.827,187.994 152,202.5C 150.465,215.691 143.465,224.358 131,228.5C 123.403,227.404 118.903,223.07 117.5,215.5C 130.632,216.184 141.465,211.518 150,201.5C 151.465,187.598 151.965,173.598 151.5,159.5 Z"/></g>
    <g><path style="opacity:1" fill="#4fbcb6" d="M 166.5,161.5 C 166.5,175.167 166.5,188.833 166.5,202.5C 166.343,203.873 166.51,205.207 167,206.5C 170.725,211.885 175.892,213.885 182.5,212.5C 182.175,204.981 182.508,197.648 183.5,190.5C 183.666,200.839 183.5,211.172 183,221.5C 177.529,230.756 171.862,230.756 166,221.5C 165.171,201.329 165.338,181.329 166.5,161.5 Z"/></g>
    <g><path style="opacity:1" fill="#4ed2c5" d="M 263.5,209.5 C 268.324,211.151 273.324,211.817 278.5,211.5C 278.665,214.85 278.498,218.183 278,221.5C 275.928,226.143 272.428,227.643 267.5,226C 265.951,224.786 264.785,223.286 264,221.5C 263.501,217.514 263.334,213.514 263.5,209.5 Z"/></g>
    <g><path style="opacity:1" fill="#55d8c8" d="M 225.5,209.5 C 226.263,210.268 227.263,210.768 228.5,211C 231.817,211.498 235.15,211.665 238.5,211.5C 239.007,216.121 238.174,220.454 236,224.5C 231.659,227.448 227.659,227.115 224,223.5C 222.71,219.27 222.21,214.936 222.5,210.5C 223.609,210.443 224.609,210.11 225.5,209.5 Z"/></g>
    <g><path style="opacity:1" fill="#4dd1c1" d="M 77.5,195.5 C 77.3433,196.873 77.51,198.207 78,199.5C 85.9611,210.654 96.7945,215.988 110.5,215.5C 107.213,227.638 99.8801,230.805 88.5,225C 80.8808,218.595 76.8808,210.428 76.5,200.5C 76.2155,198.585 76.5489,196.919 77.5,195.5 Z"/></g>
    <g><path style="opacity:1" fill="#40c3bb" d="M 409.5,201.5 C 413.312,206.87 413.479,212.536 410,218.5C 403.184,228.217 394.017,231.384 382.5,228C 375.616,224.725 368.616,221.725 361.5,219C 356.833,218.667 352.167,218.333 347.5,218C 344.037,215.85 342.704,212.684 343.5,208.5C 344.167,208.5 344.833,208.5 345.5,208.5C 346.909,210.417 348.576,212.25 350.5,214C 359.91,214.815 369.243,216.149 378.5,218C 384.833,218.667 391.167,218.667 397.5,218C 399.286,217.215 400.786,216.049 402,214.5C 403.515,209.453 406.015,205.12 409.5,201.5 Z"/></g>
    <g><path style="opacity:1" fill="#4ec8be" d="M 213.5,185.5 C 213.833,185.5 214.167,185.5 214.5,185.5C 214.667,197.838 214.5,210.171 214,222.5C 211.647,227.426 207.814,229.26 202.5,228C 200.383,226.269 198.883,224.102 198,221.5C 197.5,210.839 197.333,200.172 197.5,189.5C 198.491,196.313 198.825,203.313 198.5,210.5C 203.453,211.329 208.453,211.663 213.5,211.5C 213.5,202.833 213.5,194.167 213.5,185.5 Z"/></g>
    <g><path style="opacity:1" fill="#70efd0" d="M 345.5,225.5 C 353.302,225.787 355.302,229.287 351.5,236C 344.913,237.31 341.08,234.81 340,228.5C 342.058,227.771 343.891,226.771 345.5,225.5 Z"/></g>
    <g><path style="opacity:1" fill="#c44273" d="M 156.5,239.5 C 155.757,236.43 153.757,234.764 150.5,234.5C 155.143,232.209 159.809,229.875 164.5,227.5C 164.649,228.552 164.483,229.552 164,230.5C 161.482,233.571 158.982,236.571 156.5,239.5 Z"/></g>
    <g><path style="opacity:1" fill="#836a4d" d="M 224.5,234.5 C 222.435,234.517 220.435,234.85 218.5,235.5C 219.134,234.053 220.301,233.387 222,233.5C 223.07,233.528 223.903,233.861 224.5,234.5 Z"/></g>
    <g><path style="opacity:1" fill="#342d47" d="M 277.5,234.5 C 276.167,234.5 274.833,234.5 273.5,234.5C 273.433,235.959 273.766,237.292 274.5,238.5C 273.25,238.423 272.417,237.756 272,236.5C 271.823,240.356 271.323,244.023 270.5,247.5C 270.5,243.167 270.5,238.833 270.5,234.5C 269.5,234.5 268.5,234.5 267.5,234.5C 270.171,233.702 273.004,233.035 276,232.5C 277.03,232.836 277.53,233.503 277.5,234.5 Z"/></g>
    <g><path style="opacity:1" fill="#efab46" d="M 224.5,234.5 C 226.371,234.859 227.871,235.859 229,237.5C 230.337,247.4 226.504,250.4 217.5,246.5C 216.735,243.904 216.401,241.237 216.5,238.5C 216.932,237.29 217.599,236.29 218.5,235.5C 220.435,234.85 222.435,234.517 224.5,234.5 Z"/></g>
    <g><path style="opacity:1" fill="#f4a942" d="M 267.5,234.5 C 268.5,234.5 269.5,234.5 270.5,234.5C 270.5,238.833 270.5,243.167 270.5,247.5C 269.5,248.833 268.5,248.833 267.5,247.5C 267.799,245.396 267.466,243.396 266.5,241.5C 265.702,241.957 265.369,242.624 265.5,243.5C 263.927,245.836 262.594,245.836 261.5,243.5C 261.44,242.957 261.107,242.624 260.5,242.5C 259.571,243.689 259.238,245.022 259.5,246.5C 259.179,248.048 258.179,248.715 256.5,248.5C 256.5,243.5 256.5,238.5 256.5,233.5C 257.552,233.351 258.552,233.517 259.5,234C 260.305,235.972 261.639,237.472 263.5,238.5C 264.84,237.133 266.173,235.8 267.5,234.5 Z"/></g>
    <g><path style="opacity:1" fill="#e7a145" d="M 242.5,233.5 C 243.822,233.33 244.989,233.663 246,234.5C 246.667,238.5 246.667,242.5 246,246.5C 245.275,248.158 244.108,248.658 242.5,248C 240.641,246.442 239.141,244.609 238,242.5C 237.505,244.473 237.338,246.473 237.5,248.5C 236.178,248.67 235.011,248.337 234,247.5C 233.501,243.179 233.334,238.846 233.5,234.5C 234.873,234.343 236.207,234.51 237.5,235C 240.627,241.136 242.293,240.636 242.5,233.5 Z"/></g>
    <g><path style="opacity:1" fill="#eda444" d="M 277.5,234.5 C 277.415,235.995 278.081,236.995 279.5,237.5C 280.951,235.441 282.951,234.441 285.5,234.5C 282.925,238.977 280.925,243.644 279.5,248.5C 278.243,244.967 276.576,241.634 274.5,238.5C 273.766,237.292 273.433,235.959 273.5,234.5C 274.833,234.5 276.167,234.5 277.5,234.5 Z"/></g>
    <g><path style="opacity:1" fill="#e55d65" d="M 150.5,234.5 C 153.757,234.764 155.757,236.43 156.5,239.5C 155.67,244.824 152.67,246.658 147.5,245C 144.168,240.13 145.168,236.63 150.5,234.5 Z"/></g>
    <g><path style="opacity:1" fill="#fbfaf7" d="M 121.5,240.5 C 122.038,242.117 122.371,243.784 122.5,245.5C 118.83,245.327 116.33,246.993 115,250.5C 114.5,272.164 114.333,293.831 114.5,315.5C 114.027,316.906 113.027,317.573 111.5,317.5C 111.333,294.164 111.5,270.831 112,247.5C 113.345,242.651 116.511,240.318 121.5,240.5 Z"/></g>
    <g><path style="opacity:1" fill="#1c1849" d="M 220.5,238.5 C 222.167,238.5 223.833,238.5 225.5,238.5C 225.66,240.199 225.494,241.866 225,243.5C 220.328,244.849 218.828,243.182 220.5,238.5 Z"/></g>
    <g><path style="opacity:1" fill="#7c5d4a" d="M 261.5,243.5 C 260.833,244.5 260.167,245.5 259.5,246.5C 259.238,245.022 259.571,243.689 260.5,242.5C 261.107,242.624 261.44,242.957 261.5,243.5 Z"/></g>
    <g><path style="opacity:1" fill="#6a523d" d="M 267.5,247.5 C 266.833,246.167 266.167,244.833 265.5,243.5C 265.369,242.624 265.702,241.957 266.5,241.5C 267.466,243.396 267.799,245.396 267.5,247.5 Z"/></g>
    <g><path style="opacity:1" fill="#f9a939" d="M 404.5,257.5 C 382.164,257.667 359.831,257.5 337.5,257C 336.255,256.209 334.922,255.709 333.5,255.5C 330.106,249.652 331.439,245.152 337.5,242C 359.167,241.333 380.833,241.333 402.5,242C 408.544,244.932 410.044,249.432 407,255.5C 406.292,256.381 405.458,257.047 404.5,257.5 Z"/></g>
    <g><path style="opacity:1" fill="#554b4d" d="M 216.5,238.5 C 216.401,241.237 216.735,243.904 217.5,246.5C 215.974,245.508 215.307,244.008 215.5,242C 215.514,240.615 215.848,239.449 216.5,238.5 Z"/></g>
    <g><path style="opacity:1" fill="#eee7e0" d="M 94.5,243.5 C 90.282,246.325 87.282,249.992 85.5,254.5C 84.3655,247.622 87.3655,243.956 94.5,243.5 Z"/></g>
    <g><path style="opacity:1" fill="#fba23d" d="M 94.5,243.5 C 97.2921,243.622 99.2921,244.956 100.5,247.5C 100.324,256.618 95.657,259.951 86.5,257.5C 85.8902,256.609 85.5569,255.609 85.5,254.5C 87.282,249.992 90.282,246.325 94.5,243.5 Z"/></g>
    <g><path style="opacity:1" fill="#f0ece2" d="M 205.5,249.5 C 205.5,250.833 205.5,252.167 205.5,253.5C 204.448,253.351 203.448,253.517 202.5,254C 201.023,255.812 199.69,257.645 198.5,259.5C 197.833,259.167 197.167,258.833 196.5,258.5C 197.167,253.167 200.167,250.167 205.5,249.5 Z"/></g>
    <g><path style="opacity:1" fill="#f5f3ef" d="M 327.5,263.5 C 327.657,264.873 327.49,266.207 327,267.5C 315.664,257.759 302.498,253.592 287.5,255C 284.137,256.899 282.137,259.732 281.5,263.5C 281.167,263.5 280.833,263.5 280.5,263.5C 279.96,254.372 284.293,249.705 293.5,249.5C 306.795,249.826 318.128,254.493 327.5,263.5 Z"/></g>
    <g><path style="opacity:1" fill="#f0ac4f" d="M 333.5,255.5 C 334.922,255.709 336.255,256.209 337.5,257C 359.831,257.5 382.164,257.667 404.5,257.5C 382.004,258.663 359.337,258.83 336.5,258C 335.058,257.623 334.058,256.79 333.5,255.5 Z"/></g>
    <g><path style="opacity:1" fill="#eb7f51" d="M 100.5,247.5 C 103.211,256.967 99.5444,261.133 89.5,260C 88.0577,259.623 87.0577,258.79 86.5,257.5C 95.657,259.951 100.324,256.618 100.5,247.5 Z"/></g>
    <g><path style="opacity:1" fill="#fba736" d="M 327.5,263.5 C 335.247,269.993 339.581,278.326 340.5,288.5C 340.663,290.857 340.497,293.19 340,295.5C 331.837,302.663 324.004,310.163 316.5,318C 315.255,318.791 313.922,319.291 312.5,319.5C 324.022,308.347 326.522,295.347 320,280.5C 314.364,272.933 306.864,268.933 297.5,268.5C 296.677,271.977 296.177,275.644 296,279.5C 291.555,283.791 286.722,287.458 281.5,290.5C 281.5,281.5 281.5,272.5 281.5,263.5C 282.137,259.732 284.137,256.899 287.5,255C 302.498,253.592 315.664,257.759 327,267.5C 327.49,266.207 327.657,264.873 327.5,263.5 Z"/></g>
    <g><path style="opacity:1" fill="#faa73b" d="M 205.5,249.5 C 209.562,249.724 212.395,251.724 214,255.5C 214.5,271.497 214.667,287.497 214.5,303.5C 208.752,305.782 202.752,306.782 196.5,306.5C 196.5,306.167 196.5,305.833 196.5,305.5C 198.484,290.536 199.151,275.203 198.5,259.5C 199.69,257.645 201.023,255.812 202.5,254C 203.448,253.517 204.448,253.351 205.5,253.5C 205.5,252.167 205.5,250.833 205.5,249.5 Z"/></g>
    <g><path style="opacity:1" fill="#fdab3a" d="M 232.5,256.5 C 234.716,257.203 236.549,258.536 238,260.5C 238.5,272.495 238.667,284.495 238.5,296.5C 234.12,299.855 229.12,301.855 223.5,302.5C 223.5,306.833 223.5,311.167 223.5,315.5C 223.167,315.5 222.833,315.5 222.5,315.5C 222.5,306.5 222.5,297.5 222.5,288.5C 223.15,288.804 223.817,289.137 224.5,289.5C 225.332,280.184 225.832,270.851 226,261.5C 228.326,259.934 230.492,258.268 232.5,256.5 Z"/></g>
    <g><path style="opacity:1" fill="#fbf9f3" d="M 232.5,256.5 C 230.492,258.268 228.326,259.934 226,261.5C 225.832,270.851 225.332,280.184 224.5,289.5C 223.817,289.137 223.15,288.804 222.5,288.5C 222.334,279.161 222.5,269.827 223,260.5C 225.408,257.38 228.574,256.047 232.5,256.5 Z"/></g>
    <g><path style="opacity:1" fill="#faa137" d="M 257.5,265.5 C 265.191,275.869 272.524,286.535 279.5,297.5C 279.56,298.043 279.893,298.376 280.5,298.5C 281.48,295.914 281.813,293.247 281.5,290.5C 286.722,287.458 291.555,283.791 296,279.5C 296.177,275.644 296.677,271.977 297.5,268.5C 297.5,279.167 297.5,289.833 297.5,300.5C 296.833,300.5 296.5,300.833 296.5,301.5C 292.481,304.129 288.148,306.295 283.5,308C 278.882,308.994 274.215,309.494 269.5,309.5C 268.078,308.075 266.411,307.075 264.5,306.5C 264.068,305.29 263.401,304.29 262.5,303.5C 259.466,298.752 255.966,294.419 252,290.5C 251.809,292.708 251.309,294.708 250.5,296.5C 250.5,288.167 250.5,279.833 250.5,271.5C 251.32,267.9 253.653,265.9 257.5,265.5 Z"/></g>
    <g><path style="opacity:1" fill="#fcaa39" d="M 369.5,309.5 C 361.745,305.414 356.079,299.414 352.5,291.5C 352.175,283.981 352.508,276.648 353.5,269.5C 353.238,270.978 353.571,272.311 354.5,273.5C 355.255,270.675 356.255,268.009 357.5,265.5C 362.86,263.179 366.694,264.846 369,270.5C 369.5,283.496 369.667,296.496 369.5,309.5 Z"/></g>
    <g><path style="opacity:1" fill="#e5dec9" d="M 257.5,265.5 C 253.653,265.9 251.32,267.9 250.5,271.5C 249.5,271.167 248.833,270.5 248.5,269.5C 250.252,265.12 253.252,263.787 257.5,265.5 Z"/></g>
    <g><path style="opacity:1" fill="#072459" d="M 297.5,268.5 C 306.864,268.933 314.364,272.933 320,280.5C 326.522,295.347 324.022,308.347 312.5,319.5C 311.508,319.328 310.842,319.662 310.5,320.5C 306.282,321.971 301.949,322.971 297.5,323.5C 297.5,315.833 297.5,308.167 297.5,300.5C 297.5,289.833 297.5,279.167 297.5,268.5 Z"/></g>
    <g><path style="opacity:1" fill="#f6e4bd" d="M 357.5,265.5 C 356.255,268.009 355.255,270.675 354.5,273.5C 353.571,272.311 353.238,270.978 353.5,269.5C 353.833,267.167 355.167,265.833 357.5,265.5 Z"/></g>
    <g><path style="opacity:1" fill="#fca738" d="M 121.5,240.5 C 125.13,240.765 128.297,242.098 131,244.5C 136.702,259.996 142.702,275.329 149,290.5C 154.264,275.378 159.931,260.378 166,245.5C 172.971,238.619 179.638,238.952 186,246.5C 186.5,266.497 186.667,286.497 186.5,306.5C 180.182,308.253 174.182,307.586 168.5,304.5C 168.5,304.167 168.5,303.833 168.5,303.5C 168.666,298.821 168.499,294.155 168,289.5C 166.961,290.244 166.461,291.244 166.5,292.5C 166.068,293.71 165.401,294.71 164.5,295.5C 154.399,300.442 144.065,300.775 133.5,296.5C 129.99,287.271 128.657,287.938 129.5,298.5C 126.137,305.524 121.137,311.191 114.5,315.5C 114.333,293.831 114.5,272.164 115,250.5C 116.33,246.993 118.83,245.327 122.5,245.5C 122.371,243.784 122.038,242.117 121.5,240.5 Z"/></g>
    <g><path style="opacity:1" fill="#f5cc5f" d="M 248.5,269.5 C 248.833,270.5 249.5,271.167 250.5,271.5C 250.5,279.833 250.5,288.167 250.5,296.5C 249.652,297.625 248.652,297.625 247.5,296.5C 247.173,287.318 247.507,278.318 248.5,269.5 Z"/></g>
    <g><path style="opacity:1" fill="#b17c3c" d="M 280.5,263.5 C 280.833,263.5 281.167,263.5 281.5,263.5C 281.5,272.5 281.5,281.5 281.5,290.5C 281.813,293.247 281.48,295.914 280.5,298.5C 279.893,298.376 279.56,298.043 279.5,297.5C 280.495,286.346 280.828,275.012 280.5,263.5 Z"/></g>
    <g><path style="opacity:1" fill="#e65c62" d="M 384.5,281.5 C 391.494,281.415 393.161,284.248 389.5,290C 382.237,290.821 380.571,287.988 384.5,281.5 Z"/></g>
    <g><path style="opacity:1" fill="#f3a744" d="M 93.5,289.5 C 97.0897,289.544 99.5897,291.211 101,294.5C 101.5,302.827 101.666,311.16 101.5,319.5C 101.167,319.5 100.833,319.5 100.5,319.5C 100.666,312.492 100.5,305.492 100,298.5C 95.7847,301.888 90.9513,303.221 85.5,302.5C 85.8229,308.69 85.4896,314.69 84.5,320.5C 84.5,313.167 84.5,305.833 84.5,298.5C 87.3455,298.191 88.8455,296.525 89,293.5C 90.6667,292.267 92.1667,290.933 93.5,289.5 Z"/></g>
    <g><path style="opacity:1" fill="#f5f1e7" d="M 93.5,289.5 C 92.1667,290.933 90.6667,292.267 89,293.5C 88.8455,296.525 87.3455,298.191 84.5,298.5C 84.5,292.5 87.5,289.5 93.5,289.5 Z"/></g>
    <g><path style="opacity:1" fill="#ea5b5e" d="M 412.5,301.5 C 410.116,301.557 407.782,301.223 405.5,300.5C 403.41,302.106 401.076,302.606 398.5,302C 398.833,301.667 399.167,301.333 399.5,301C 396.059,299.742 394.726,297.242 395.5,293.5C 399.243,286.818 404.243,285.818 410.5,290.5C 413.437,293.793 414.104,297.46 412.5,301.5 Z"/></g>
    <g><path style="opacity:1" fill="#996443" d="M 168.5,303.5 C 168.167,303.5 167.833,303.5 167.5,303.5C 167.815,299.629 167.482,295.962 166.5,292.5C 166.461,291.244 166.961,290.244 168,289.5C 168.499,294.155 168.666,298.821 168.5,303.5 Z"/></g>
    <g><path style="opacity:1" fill="#fbdd59" d="M 196.5,258.5 C 197.167,258.833 197.833,259.167 198.5,259.5C 199.151,275.203 198.484,290.536 196.5,305.5C 196.5,289.833 196.5,274.167 196.5,258.5 Z"/></g>
    <g><path style="opacity:1" fill="#f67849" d="M 262.5,303.5 C 261.532,305.607 261.198,307.941 261.5,310.5C 256.943,312.599 252.277,312.933 247.5,311.5C 247.5,306.5 247.5,301.5 247.5,296.5C 248.652,297.625 249.652,297.625 250.5,296.5C 251.309,294.708 251.809,292.708 252,290.5C 255.966,294.419 259.466,298.752 262.5,303.5 Z"/></g>
    <g><path style="opacity:1" fill="#6fdccd" d="M 378.5,300.5 C 381.166,300.066 382.333,301.066 382,303.5C 378.403,305.066 377.237,304.066 378.5,300.5 Z"/></g>
    <g><path style="opacity:1" fill="#d2486f" d="M 395.5,293.5 C 394.726,297.242 396.059,299.742 399.5,301C 399.167,301.333 398.833,301.667 398.5,302C 401.076,302.606 403.41,302.106 405.5,300.5C 407.782,301.223 410.116,301.557 412.5,301.5C 409.366,306.119 405.032,307.619 399.5,306C 394.838,302.71 393.505,298.543 395.5,293.5 Z"/></g>
    <g><path style="opacity:1" fill="#e14d65" d="M 164.5,295.5 C 162.562,301.38 160.062,307.047 157,312.5C 151.875,315.995 146.542,316.328 141,313.5C 137.248,308.418 134.748,302.751 133.5,296.5C 144.065,300.775 154.399,300.442 164.5,295.5 Z"/></g>
    <g><path style="opacity:1" fill="#fd9c38" d="M 100.5,319.5 C 95.4219,321.332 90.0886,321.998 84.5,321.5C 84.5,321.167 84.5,320.833 84.5,320.5C 85.4896,314.69 85.8229,308.69 85.5,302.5C 90.9513,303.221 95.7847,301.888 100,298.5C 100.5,305.492 100.666,312.492 100.5,319.5 Z"/></g>
    <g><path style="opacity:1" fill="#fc8a40" d="M 238.5,296.5 C 238.5,301.833 238.5,307.167 238.5,312.5C 233.759,315.755 228.759,316.755 223.5,315.5C 223.5,311.167 223.5,306.833 223.5,302.5C 229.12,301.855 234.12,299.855 238.5,296.5 Z"/></g>
    <g><path style="opacity:1" fill="#ef5d5a" d="M 129.5,298.5 C 129.5,305.833 129.5,313.167 129.5,320.5C 123.598,323.825 117.598,324.159 111.5,321.5C 111.5,320.167 111.5,318.833 111.5,317.5C 113.027,317.573 114.027,316.906 114.5,315.5C 121.137,311.191 126.137,305.524 129.5,298.5 Z"/></g>
    <g><path style="opacity:1" fill="#ea5863" d="M 340.5,288.5 C 342.195,297.117 341.195,305.451 337.5,313.5C 335.514,312.239 333.681,312.572 332,314.5C 330.542,312.476 328.709,312.309 326.5,314C 325.667,315.5 324.5,316.667 323,317.5C 322.383,318.449 322.549,319.282 323.5,320C 322.027,320.71 321.36,321.876 321.5,323.5C 317.175,323.379 313.009,324.046 309,325.5C 308.308,324.975 307.808,324.308 307.5,323.5C 308.77,322.712 309.77,321.712 310.5,320.5C 310.842,319.662 311.508,319.328 312.5,319.5C 313.922,319.291 315.255,318.791 316.5,318C 324.004,310.163 331.837,302.663 340,295.5C 340.497,293.19 340.663,290.857 340.5,288.5 Z"/></g>
    <g><path style="opacity:1" fill="#f46d54" d="M 214.5,303.5 C 214.5,309.167 214.5,314.833 214.5,320.5C 213.833,320.5 213.5,320.833 213.5,321.5C 207.848,322.032 202.181,322.365 196.5,322.5C 196.5,317.167 196.5,311.833 196.5,306.5C 202.752,306.782 208.752,305.782 214.5,303.5 Z"/></g>
    <g><path style="opacity:1" fill="#d74966" d="M 261.5,310.5 C 261.5,314.833 261.5,319.167 261.5,323.5C 252.455,324.448 247.788,320.448 247.5,311.5C 252.277,312.933 256.943,312.599 261.5,310.5 Z"/></g>
    <g><path style="opacity:1" fill="#f2615b" d="M 168.5,304.5 C 174.182,307.586 180.182,308.253 186.5,306.5C 186.5,311.833 186.5,317.167 186.5,322.5C 180.771,322.788 175.104,322.454 169.5,321.5C 168.505,315.872 168.171,310.206 168.5,304.5 Z"/></g>
    <g><path style="opacity:1" fill="#ea5c5f" d="M 352.5,291.5 C 356.079,299.414 361.745,305.414 369.5,309.5C 369.5,312.5 369.5,315.5 369.5,318.5C 368.833,318.5 368.5,318.833 368.5,319.5C 363.102,322.106 357.769,322.106 352.5,319.5C 352.5,310.167 352.5,300.833 352.5,291.5 Z"/></g>
    <g><path style="opacity:1" fill="#d94a67" d="M 238.5,312.5 C 238.93,315.862 237.93,318.695 235.5,321C 231.539,322.598 227.539,324.098 223.5,325.5C 222.513,322.232 222.18,318.898 222.5,315.5C 222.833,315.5 223.167,315.5 223.5,315.5C 228.759,316.755 233.759,315.755 238.5,312.5 Z"/></g>
    <g><path style="opacity:1" fill="#f8744f" d="M 296.5,301.5 C 296.829,307.206 296.495,312.872 295.5,318.5C 291.374,320.281 287.041,320.948 282.5,320.5C 277.236,317.901 272.903,314.234 269.5,309.5C 274.215,309.494 278.882,308.994 283.5,308C 288.148,306.295 292.481,304.129 296.5,301.5 Z"/></g>
    <g><path style="opacity:1" fill="#dd4d66" d="M 297.5,300.5 C 297.5,308.167 297.5,315.833 297.5,323.5C 301.949,322.971 306.282,321.971 310.5,320.5C 309.77,321.712 308.77,322.712 307.5,323.5C 307.808,324.308 308.308,324.975 309,325.5C 313.009,324.046 317.175,323.379 321.5,323.5C 321.36,321.876 322.027,320.71 323.5,320C 322.549,319.282 322.383,318.449 323,317.5C 324.5,316.667 325.667,315.5 326.5,314C 328.709,312.309 330.542,312.476 332,314.5C 333.681,312.572 335.514,312.239 337.5,313.5C 337.104,316.721 335.771,319.388 333.5,321.5C 330.236,321.572 327.403,323.239 325,326.5C 324.439,325.978 323.772,325.645 323,325.5C 319.205,328 315.205,329 311,328.5C 307.589,328.985 304.256,329.652 301,330.5C 299.212,329.642 297.378,328.642 295.5,327.5C 294.919,325.405 294.919,323.572 295.5,322C 290.981,321.825 286.647,321.325 282.5,320.5C 287.041,320.948 291.374,320.281 295.5,318.5C 296.495,312.872 296.829,307.206 296.5,301.5C 296.5,300.833 296.833,300.5 297.5,300.5 Z"/></g>
    <g><path style="opacity:1" fill="#d5496e" d="M 100.5,319.5 C 100.5,324.167 100.5,328.833 100.5,333.5C 95.743,333.004 91.243,333.67 87,335.5C 85.9889,334.944 85.1556,334.278 84.5,333.5C 84.5,329.5 84.5,325.5 84.5,321.5C 90.0886,321.998 95.4219,321.332 100.5,319.5 Z"/></g>
    <g><path style="opacity:1" fill="#c73a75" d="M 213.5,321.5 C 213.5,324.833 213.5,328.167 213.5,331.5C 208.025,330.919 202.858,331.586 198,333.5C 197.821,329.975 197.321,326.641 196.5,323.5C 196.5,323.167 196.5,322.833 196.5,322.5C 202.181,322.365 207.848,322.032 213.5,321.5 Z"/></g>
    <g><path style="opacity:1" fill="#c03874" d="M 352.5,319.5 C 357.769,322.106 363.102,322.106 368.5,319.5C 368.5,324.167 368.5,328.833 368.5,333.5C 362.8,333.479 357.467,332.812 352.5,331.5C 352.5,327.5 352.5,323.5 352.5,319.5 Z"/></g>
    <g><path style="opacity:1" fill="#b73876" d="M 167.5,303.5 C 167.833,303.5 168.167,303.5 168.5,303.5C 168.5,303.833 168.5,304.167 168.5,304.5C 168.171,310.206 168.505,315.872 169.5,321.5C 175.104,322.454 180.771,322.788 186.5,322.5C 186.666,326.846 186.499,331.179 186,335.5C 180,344.833 174,344.833 168,335.5C 167.5,324.839 167.333,314.172 167.5,303.5 Z"/></g>
    <g><path style="opacity:1" fill="#cf426d" d="M 264.5,306.5 C 266.411,307.075 268.078,308.075 269.5,309.5C 272.903,314.234 277.236,317.901 282.5,320.5C 286.647,321.325 290.981,321.825 295.5,322C 294.919,323.572 294.919,325.405 295.5,327.5C 297.378,328.642 299.212,329.642 301,330.5C 304.256,329.652 307.589,328.985 311,328.5C 315.205,329 319.205,328 323,325.5C 323.772,325.645 324.439,325.978 325,326.5C 327.403,323.239 330.236,321.572 333.5,321.5C 330.167,326.833 325.833,331.167 320.5,334.5C 313.885,334.478 307.385,335.145 301,336.5C 297.617,335.248 294.284,333.914 291,332.5C 287.534,333.717 284.034,333.717 280.5,332.5C 274.164,324.502 268.83,315.836 264.5,306.5 Z"/></g>
    <g><path style="opacity:1" fill="#b73e76" d="M 100.5,319.5 C 100.833,319.5 101.167,319.5 101.5,319.5C 101.666,324.844 101.499,330.177 101,335.5C 97.2749,343.183 92.2749,344.183 86,338.5C 84.9914,336.975 84.4914,335.308 84.5,333.5C 85.1556,334.278 85.9889,334.944 87,335.5C 91.243,333.67 95.743,333.004 100.5,333.5C 100.5,328.833 100.5,324.167 100.5,319.5 Z"/></g>
    <g><path style="opacity:1" fill="#bb3b76" d="M 129.5,320.5 C 129.851,326.262 129.351,331.928 128,337.5C 123.306,343.645 118.306,343.979 113,338.5C 111.649,332.928 111.149,327.262 111.5,321.5C 117.598,324.159 123.598,323.825 129.5,320.5 Z"/></g>
    <g><path style="opacity:1" fill="#edf6f7" d="M 250.5,335.5 C 252.279,336.67 253.279,338.336 253.5,340.5C 239.3,337.167 228.8,341.834 222,354.5C 221.502,357.817 221.335,361.15 221.5,364.5C 220.167,364.5 218.833,364.5 217.5,364.5C 216.008,349.357 222.675,339.523 237.5,335C 242.02,334.186 246.354,334.353 250.5,335.5 Z"/></g>
    <g><path style="opacity:1" fill="#af3379" d="M 369.5,318.5 C 369.666,324.509 369.499,330.509 369,336.5C 366.265,342.122 362.099,343.622 356.5,341C 353.924,338.349 352.591,335.182 352.5,331.5C 357.467,332.812 362.8,333.479 368.5,333.5C 368.5,328.833 368.5,324.167 368.5,319.5C 368.5,318.833 368.833,318.5 369.5,318.5 Z"/></g>
    <g><path style="opacity:1" fill="#bd3872" d="M 280.5,332.5 C 284.034,333.717 287.534,333.717 291,332.5C 294.284,333.914 297.617,335.248 301,336.5C 307.385,335.145 313.885,334.478 320.5,334.5C 311.361,340.26 301.361,342.427 290.5,341C 286.387,339.052 283.054,336.219 280.5,332.5 Z"/></g>
    <g><path style="opacity:1" fill="#b23375" d="M 214.5,320.5 C 214.666,325.511 214.499,330.511 214,335.5C 209.799,343.342 204.466,344.342 198,338.5C 196.675,333.599 196.175,328.599 196.5,323.5C 197.321,326.641 197.821,329.975 198,333.5C 202.858,331.586 208.025,330.919 213.5,331.5C 213.5,328.167 213.5,324.833 213.5,321.5C 213.5,320.833 213.833,320.5 214.5,320.5 Z"/></g>
    <g><path style="opacity:1" fill="#70fad1" d="M 250.5,335.5 C 259.788,337.312 266.121,342.646 269.5,351.5C 267.763,357.569 264.43,362.569 259.5,366.5C 259.5,364.5 259.5,362.5 259.5,360.5C 258.041,360.567 256.708,360.234 255.5,359.5C 252.874,352.519 247.874,349.686 240.5,351C 234.279,353.842 231.779,358.675 233,365.5C 230.89,370.945 227.056,372.778 221.5,371C 219.266,369.362 217.933,367.195 217.5,364.5C 218.833,364.5 220.167,364.5 221.5,364.5C 221.335,361.15 221.502,357.817 222,354.5C 228.8,341.834 239.3,337.167 253.5,340.5C 253.279,338.336 252.279,336.67 250.5,335.5 Z"/></g>
    <g><path style="opacity:0.999" fill="#364064" d="M 321.5,354.5 C 312.46,356.908 303.126,357.908 293.5,357.5C 293.611,356.883 293.944,356.383 294.5,356C 303.515,355.642 312.515,355.142 321.5,354.5 Z"/></g>
    <g><path style="opacity:1" fill="#f0f7f9" d="M 255.5,359.5 C 256.708,360.234 258.041,360.567 259.5,360.5C 259.5,362.5 259.5,364.5 259.5,366.5C 258.094,369.414 256.094,371.914 253.5,374C 249.156,375.466 244.989,377.299 241,379.5C 239.621,384.036 239.121,388.703 239.5,393.5C 238.167,393.5 236.833,393.5 235.5,393.5C 235.334,388.489 235.501,383.489 236,378.5C 236.786,375.417 238.619,373.251 241.5,372C 250.164,372.164 254.83,367.998 255.5,359.5 Z"/></g>
    <g><path style="opacity:1" fill="#0b2459" d="M 134.5,369.5 C 144.839,369.334 155.172,369.5 165.5,370C 169.5,374 169.5,378 165.5,382C 154.833,382.667 144.167,382.667 133.5,382C 129.334,377.368 129.667,373.202 134.5,369.5 Z"/></g>
    <g><path style="opacity:1" fill="#092459" d="M 326.5,369.5 C 336.839,369.334 347.172,369.5 357.5,370C 362.809,373.953 362.809,377.953 357.5,382C 346.833,382.667 336.167,382.667 325.5,382C 321.334,377.368 321.667,373.202 326.5,369.5 Z"/></g>
    <g><path style="opacity:1" fill="#48cac0" d="M 269.5,351.5 C 273.725,363.027 271.392,373.194 262.5,382C 259.667,383.781 256.667,385.281 253.5,386.5C 252.526,388.743 252.192,391.076 252.5,393.5C 248.167,393.5 243.833,393.5 239.5,393.5C 239.121,388.703 239.621,384.036 241,379.5C 244.989,377.299 249.156,375.466 253.5,374C 256.094,371.914 258.094,369.414 259.5,366.5C 264.43,362.569 267.763,357.569 269.5,351.5 Z"/></g>
    <g><path style="opacity:1" fill="#6ef5d4" d="M 237.5,403.5 C 243.067,402.196 248.734,402.196 254.5,403.5C 254.649,404.552 254.483,405.552 254,406.5C 249.934,410.077 245.768,413.411 241.5,416.5C 237.149,417.467 234.815,415.8 234.5,411.5C 235.95,408.215 238.283,405.715 241.5,404C 240.207,403.51 238.873,403.343 237.5,403.5 Z"/></g>
    <g><path style="opacity:1" fill="#f0fcf7" d="M 237.5,403.5 C 238.873,403.343 240.207,403.51 241.5,404C 238.283,405.715 235.95,408.215 234.5,411.5C 232.756,407.966 233.756,405.299 237.5,403.5 Z"/></g>
    <g><path style="opacity:1" fill="#3bc5ba" d="M 254.5,403.5 C 256.478,404.317 257.478,405.817 257.5,408C 257.079,411.52 255.413,414.187 252.5,416C 248.848,416.499 245.182,416.665 241.5,416.5C 245.768,413.411 249.934,410.077 254,406.5C 254.483,405.552 254.649,404.552 254.5,403.5 Z"/></g>
    </svg>